<?xml version="1.0" standalone="no"?>
<!DOCTYPE svg PUBLIC "-//W3C//DTD SVG 20010904//EN"
 "http://www.w3.org/TR/2001/REC-SVG-20010904/DTD/svg10.dtd">
<svg version="1.0" xmlns="http://www.w3.org/2000/svg"
 width="300.000000pt" height="161.000000pt" viewBox="0 0 300.000000 161.000000"
 preserveAspectRatio="xMidYMid meet">
<g transform="translate(0.000000,161.000000) scale(0.100000,-0.100000)"
fill="#000000" stroke="none">
<path d="M55 1479 c-10 -15 3 -72 35 -156 16 -41 39 -114 50 -161 62 -253 95
-327 180 -406 106 -99 240 -134 475 -123 196 9 350 35 418 69 49 24 59 17 15
-10 -77 -47 -304 -92 -468 -92 -96 0 -219 12 -262 26 -54 17 39 -112 118 -165
128 -84 424 -147 515 -108 86 36 155 124 195 250 12 40 23 62 23 49 1 -35 -37
-142 -71 -194 -29 -46 -30 -50 -18 -98 7 -27 29 -76 50 -107 38 -58 160 -186
160 -168 0 6 -23 39 -51 75 -122 157 -155 225 -126 258 40 46 77 156 77 229 0
36 -5 47 -37 75 -52 47 -77 73 -146 156 -84 101 -190 184 -311 242 -120 57
-158 69 -386 120 -197 43 -269 67 -337 113 -44 29 -82 81 -70 94 3 2 49 -10
104 -27 54 -17 161 -44 239 -60 280 -57 422 -123 575 -268 38 -35 69 -61 69
-57 0 4 -28 36 -62 72 -35 36 -53 61 -40 54 43 -23 153 -134 234 -237 44 -58
83 -102 86 -99 8 7 -131 185 -191 244 -68 68 -117 100 -247 166 -140 70 -248
107 -423 145 -156 33 -249 60 -309 91 -43 22 -54 23 -63 8z m123 -173 c27 -13
138 -47 248 -74 109 -28 238 -64 287 -82 l87 -32 0 -38 c0 -35 -20 -70 -39
-70 -19 0 -356 102 -411 124 -113 46 -192 107 -218 169 -14 33 -13 33 46 3z
m86 -156 c28 -16 69 -35 93 -42 37 -11 42 -15 35 -33 -4 -11 -7 -46 -7 -77 0
-64 8 -60 -87 -37 -62 16 -76 35 -103 144 -14 55 -25 101 -25 103 0 3 10 -3
23 -12 12 -9 44 -29 71 -46z m258 -94 c46 -13 116 -34 157 -46 63 -18 82 -30
141 -85 86 -81 138 -99 275 -93 92 3 94 2 124 -26 17 -17 31 -35 31 -41 0 -16
-140 -35 -250 -35 -217 0 -464 82 -560 186 -34 37 -40 50 -40 86 0 60 10 90
26 84 8 -3 51 -16 96 -30z m498 -56 c91 -62 147 -116 134 -130 -16 -16 -157
-16 -212 -1 -98 27 -147 117 -103 189 l21 32 52 -26 c29 -15 78 -44 108 -64z
m-698 -74 c32 -8 94 -36 140 -65 149 -91 309 -138 493 -147 66 -3 148 -1 183
4 69 10 82 1 24 -16 -155 -47 -524 -63 -652 -29 -111 30 -212 117 -255 221
-23 54 -24 53 67 32z m947 -242 c-30 -32 -163 -113 -244 -149 -77 -34 -258
-85 -302 -85 -19 0 -48 7 -66 16 -30 15 -127 102 -127 114 0 3 89 5 198 5 151
0 217 4 282 18 117 25 199 53 241 82 44 31 48 31 18 -1z m35 -6 c-22 -39 -112
-143 -162 -189 -82 -76 -135 -100 -220 -101 -68 0 -142 16 -142 32 0 4 48 24
108 45 59 20 139 52 179 70 87 40 212 120 219 140 4 8 10 15 16 15 5 0 6 -6 2
-12z m-3 -95 c-55 -142 -127 -213 -227 -221 -31 -3 -54 0 -54 5 0 5 23 25 51
43 66 42 177 154 220 220 18 28 35 47 37 42 2 -6 -11 -46 -27 -89z"/>
<path d="M2855 1459 c-33 -16 -102 -38 -155 -49 -223 -49 -340 -79 -415 -109
-84 -32 -246 -123 -247 -137 -1 -5 -23 -33 -49 -63 -27 -30 -46 -57 -43 -60 3
-3 21 13 40 36 19 23 63 63 97 88 125 94 262 149 491 195 86 17 195 44 243 61
48 16 90 29 95 29 17 0 6 -31 -23 -64 -48 -55 -136 -92 -299 -126 -428 -90
-560 -152 -742 -353 -51 -56 -119 -127 -150 -158 -57 -55 -58 -57 -58 -113 0
-64 27 -151 66 -209 l26 -39 -19 -42 c-10 -22 -53 -87 -95 -144 -43 -57 -78
-109 -78 -115 0 -17 86 70 137 138 78 105 92 172 50 235 -31 45 -67 143 -67
178 1 17 10 -1 26 -50 49 -154 152 -248 271 -248 130 0 350 63 434 124 54 40
143 141 135 155 -4 5 -22 5 -48 -2 -24 -6 -122 -11 -218 -11 -143 0 -192 4
-270 21 -114 26 -201 57 -232 84 -19 16 -14 15 27 -5 56 -27 170 -51 324 -66
294 -29 471 8 584 122 67 68 108 147 141 278 15 58 44 157 64 220 56 173 60
193 50 213 -11 22 -22 21 -93 -14z m19 -151 c-32 -103 -187 -179 -597 -290
-52 -14 -69 1 -65 60 l3 45 65 25 c36 13 161 49 279 78 118 30 235 64 260 77
59 31 64 31 55 5z m-39 -115 c-4 -10 -16 -54 -27 -98 -27 -110 -40 -122 -159
-149 -25 -5 -26 -4 -25 47 0 28 -3 63 -7 77 -8 25 -5 27 46 43 29 9 78 35 108
56 61 44 74 49 64 24z m-673 -125 c52 -81 13 -163 -96 -198 -49 -16 -204 -16
-220 0 -8 9 3 24 42 58 59 52 228 162 247 162 7 0 19 -10 27 -22z m444 -23 c9
-51 -12 -100 -64 -145 -144 -127 -458 -198 -705 -159 -40 7 -76 15 -80 19 -5
4 5 23 22 42 l30 35 99 -5 c141 -7 196 11 272 87 31 31 72 64 91 72 49 20 313
96 321 92 4 -2 10 -19 14 -38z m154 -115 c0 -23 -50 -107 -89 -152 -83 -94
-237 -135 -461 -124 -132 6 -302 29 -360 47 -49 16 -63 31 -20 22 19 -5 98 -8
175 -8 205 1 342 37 526 141 121 67 229 102 229 74z m-879 -296 c136 -40 285
-57 451 -52 165 5 166 4 89 -65 -54 -48 -92 -67 -139 -67 -109 0 -422 128
-516 211 -56 49 -62 73 -7 29 24 -20 70 -41 122 -56z m13 -74 c55 -28 150 -68
211 -89 60 -21 111 -44 113 -50 6 -18 -45 -31 -127 -31 -91 0 -145 23 -228 95
-52 45 -163 185 -163 204 0 6 21 -10 46 -34 28 -28 86 -65 148 -95z m-91 -38
c34 -35 88 -82 120 -103 31 -22 57 -44 57 -49 0 -17 -79 -11 -118 9 -69 36
-114 97 -162 222 -29 77 -25 91 11 33 17 -27 59 -78 92 -112z"/>
<path d="M1284 1383 c-38 -127 -13 -244 71 -348 33 -39 42 -44 91 -51 30 -3
79 -3 109 1 46 5 61 13 90 43 85 89 115 219 80 348 -9 35 -22 64 -27 64 -6 0
-7 -9 -3 -22 14 -46 17 -195 5 -234 -18 -58 -60 -125 -72 -118 -6 4 -69 7
-141 8 l-131 1 -24 46 c-37 73 -48 160 -30 247 17 86 6 96 -18 15z m249 -360
c-18 -2 -48 -2 -65 0 -18 2 -4 4 32 4 36 0 50 -2 33 -4z"/>
<path d="M1475 1178 c-16 -40 -12 -48 24 -48 37 0 41 5 28 46 -13 43 -34 44
-52 2z"/>
<path d="M1441 1171 c-23 -31 -27 -46 -11 -36 11 7 43 65 36 65 -3 0 -14 -13
-25 -29z"/>
<path d="M1530 1195 c0 -14 47 -71 53 -65 3 3 -8 21 -24 40 -15 19 -29 31 -29
25z"/>
<path d="M1955 1111 c-54 -44 -101 -97 -191 -216 -37 -48 -47 -65 -40 -65 3 0
49 54 101 120 53 66 117 136 143 157 67 53 67 53 56 53 -5 0 -36 -22 -69 -49z"/>
<path d="M1396 1100 c15 -15 96 -23 158 -16 94 12 63 26 -56 26 -74 0 -109 -3
-102 -10z"/>
<path d="M1308 932 c-29 -20 -47 -37 -40 -40 6 -2 32 13 57 34 25 20 48 35 50
32 3 -3 -1 -11 -10 -18 -43 -36 18 -64 140 -63 99 0 162 22 146 51 -19 36 -35
40 -164 39 l-127 0 -52 -35z m247 -12 c-11 -5 -36 -9 -55 -9 -19 0 -44 4 -55
9 -14 6 4 9 55 9 51 0 69 -3 55 -9z"/>
<path d="M1630 966 c0 -10 101 -78 107 -72 7 7 10 4 -49 44 -45 31 -58 37 -58
28z"/>
<path d="M1333 874 c-3 -9 0 -33 6 -54 10 -33 18 -41 49 -50 48 -13 176 -13
225 1 40 11 57 37 57 86 0 22 -3 24 -22 19 -104 -30 -225 -30 -282 -1 -24 13
-28 12 -33 -1z m258 -67 c-12 -12 -170 -12 -183 1 -6 6 27 9 91 9 63 -1 98 -4
92 -10z"/>
<path d="M1367 753 c-3 -2 -1 -17 4 -33 12 -32 38 -40 138 -40 86 0 106 6 120
36 6 14 11 26 11 28 0 1 -47 1 -104 -2 -60 -3 -117 0 -134 6 -17 6 -33 8 -35
5z"/>
<path d="M1390 645 c0 -88 39 -310 72 -413 16 -52 23 -62 42 -62 20 0 26 10
44 73 29 97 49 197 57 282 3 39 8 86 11 105 l5 35 -116 0 c-108 0 -115 -1
-115 -20z m178 -37 c-3 -8 -28 -14 -66 -16 -51 -2 -62 0 -62 13 0 12 13 15 66
15 48 0 65 -3 62 -12z m22 -59 c0 -12 -31 -19 -85 -19 -54 0 -85 7 -85 19 0 3
38 6 85 6 47 0 85 -3 85 -6z m-45 -64 c0 -5 -19 -11 -42 -13 -40 -3 -53 5 -36
22 11 10 78 3 78 -9z m22 -60 c-5 -13 -119 -13 -124 0 -2 6 23 10 62 10 40 0
64 -4 62 -10z m-17 -100 c0 -11 -53 -25 -71 -20 -34 11 -20 25 26 25 25 0 45
-2 45 -5z m-30 -95 c0 -5 -7 -10 -15 -10 -8 0 -15 5 -15 10 0 6 7 10 15 10 8
0 15 -4 15 -10z"/>
</g>
</svg>
